<svg width="40" height="44" viewBox="0 0 40 44" fill="none" xmlns="http://www.w3.org/2000/svg">
<path d="M38.8613 33.2487C37.3088 35.1443 27.2107 42.829 23.6495 43.7967C14.4702 37.0558 4.22096 22.8655 0.635747 10.6073C11.1235 2.10634 13.9115 1.40182 15.2096 0.911274C18.1893 0.483331 18.4389 2.22152 18.2337 2.90993L8.2769 9.81406C7.56303 11.6197 9.13014 12.2259 10.0029 12.3033L19.9597 5.39912C21.8332 5.73831 22.0189 7.3843 21.8775 8.1649L11.9208 15.069C11.3603 17.0959 12.9658 17.7574 13.8386 17.8348L23.7954 10.9307C25.5154 11.0486 25.6627 12.6393 25.5214 13.4199L15.5646 20.324C15.1576 22.5721 16.8014 23.289 17.6742 23.3664L27.631 16.4622C29.5723 16.4267 29.5906 18.1069 29.357 18.9514L19.1237 26.0474C18.7845 27.9208 20.133 28.4874 20.8497 28.5366L31.0831 21.4406C33.0243 21.4051 32.9148 22.9009 32.6173 23.6533L22.3839 30.7492C21.9769 32.9973 23.4929 33.5297 24.3018 33.515L34.5351 26.419C36.323 26.1623 36.0472 27.4184 35.6858 28.0785L25.4525 35.1744C25.1133 37.0479 26.4618 37.6145 27.1785 37.6636L37.4119 30.5677C38.2416 29.9924 39.7045 31.7083 38.8613 33.2487Z" fill="#CDA582"/>
</svg>
