<svg width="77" height="185" viewBox="0 0 77 185" fill="none" xmlns="http://www.w3.org/2000/svg">
<path d="M61 179C45 187 26.5 184 18 179.5C17 174.5 16.2453 166.023 16.0288 155C15.262 115.96 8 51.5 1 13V1H75.5V13C67.7624 38.904 63.4909 105.422 61.7335 154.296C61.4013 163.533 61.159 171.926 61 179Z" fill="white"/>
<path d="M75.5 13V1H1V13M75.5 13C67.7624 38.904 63.4909 105.422 61.7335 154.296M75.5 13H1M1 13C8 51.5 15.262 115.96 16.0288 155M16.0288 155C16.2453 166.023 17 174.5 18 179.5C26.5 184 45 187 61 179C61.159 171.926 61.4013 163.533 61.7335 154.296M16.0288 155C25.8415 156.697 48.7202 158.933 61.7335 154.296M26.5 174C30.6667 176.667 41.1 180.4 49.5 174C45.6667 165.833 35.7 154.4 26.5 174Z" stroke="#CDA582" stroke-width="2"/>
</svg>
