<svg width="56" height="30" viewBox="0 0 56 30" fill="none" xmlns="http://www.w3.org/2000/svg">
<path d="M15 28.8252V14.3252C11 14.1585 2.7 13.7252 1.5 13.3252V2.32516C15 1.32516 44.2 -0.074836 53 2.32516C54.1667 2.99183 55.8 4.82516 53 6.82516H37.5V14.3252H33.5V28.8252H15Z" fill="white"/>
<path d="M15 14.3252V28.8252H33.5V14.3252M15 14.3252C11 14.1585 2.7 13.7252 1.5 13.3252V2.32516C15 1.32516 44.2 -0.074836 53 2.32516C54.1667 2.99183 55.8 4.82516 53 6.82516H37.5V14.3252H33.5M15 14.3252H33.5" stroke="#CDA582" stroke-width="2"/>
</svg>
