<svg width="96" height="81" viewBox="0 0 96 81" fill="none" xmlns="http://www.w3.org/2000/svg">
<path d="M45.0632 44.9592L9.97803 79.5283C8.91896 81.4041 10.474 80.4126 11.3838 79.6823L59.3473 41.1887C59.3353 33.505 66.8713 25.5336 70.6408 22.5083C82.9503 24.4257 84.8685 16.0049 84.2889 11.5549C86.8462 8.98963 87.6361 4.80814 87.7114 3.03805C86.2709 0.603983 85.4968 1.60991 85.2898 2.41713C84.9858 7.78999 82.3068 9.08521 81.0054 9.06121C70.9452 7.39022 68.806 14.3641 68.994 18.0599C69.7695 19.0263 65.8629 23.261 63.9297 25.3299C63.2268 25.2529 62.7772 26.1102 62.7598 26.2688C62.6407 29.9547 53.7721 37.9698 49.3527 41.5167C46.4795 41.771 45.2959 43.9177 45.0632 44.9592Z" fill="#CDA582"/>
<circle cx="48.3418" cy="44.2513" r="1.5" transform="rotate(-38.7492 48.3418 44.2513)" fill="white"/>
<ellipse cx="76.7209" cy="15.7053" rx="6.5" ry="5" transform="rotate(-38.7492 76.7209 15.7053)" fill="white"/>
</svg>
