<svg width="97" height="89" viewBox="0 0 97 89" fill="none" xmlns="http://www.w3.org/2000/svg">
<path d="M41.1402 36.2563L1.11472 57.4803C-0.506655 59.2944 1.06506 59.0161 2.05359 58.6501L55.6652 36.7802C59.2855 34.9005 70.2366 33.634 75.2595 33.2358C81.5763 37.9111 86.121 37.9821 87.6038 37.4332C98.9039 32.9802 93.1814 25.4772 88.9077 22.2823C84.0276 17.4798 81.8257 20.9138 81.3347 23.2312C79.8365 23.9207 77.7482 26.7507 76.8913 28.0795C76.333 30.5791 66.9274 31.3747 62.2943 31.46C56.4823 29.9698 49.2555 32.5215 46.3685 33.9836C43.6801 32.551 41.7628 34.9018 41.1402 36.2563Z" fill="#CDA582"/>
<ellipse cx="85.3925" cy="30.4367" rx="6.5" ry="5" transform="rotate(-7.25091 85.3925 30.4367)" fill="white"/>
</svg>
