<svg width="69" height="203" viewBox="0 0 69 203" fill="none" xmlns="http://www.w3.org/2000/svg">
<path d="M16.868 7.41225C12.068 -1.38775 47.5346 0.745582 65.868 2.91225L66.1051 25.9123L67.868 196.912C33.068 205.712 15.368 200.579 10.868 196.912C-3.28112 135.877 0.0321679 81.0954 6.8945 44.4123C9.9262 28.2061 13.6506 15.5323 16.868 7.41225Z" fill="white"/>
<path d="M66.1051 25.9123L67.868 196.912C33.068 205.712 15.368 200.579 10.868 196.912C-3.28112 135.877 0.0321679 81.0954 6.8945 44.4123M66.1051 25.9123L65.868 2.91225C47.5346 0.745582 12.068 -1.38775 16.868 7.41225C13.6506 15.5323 9.9262 28.2061 6.8945 44.4123M66.1051 25.9123C60.4804 28.0066 52.8377 29.7586 44.868 32.9123C35.9954 36.4232 26.7177 41.337 19.368 43.4123C13.8809 44.9616 9.0458 44.4123 6.8945 44.4123" stroke="#CDA582" stroke-width="2"/>
</svg>
